<?xml version="1.0" encoding="UTF-8"?>
<svg id="Layer_2" data-name="Layer 2" xmlns="http://www.w3.org/2000/svg" viewBox="0 0 474.77 458.14">
  <defs>
    <style>
      .cls-1 {
        fill: #ffffff;
        stroke-width: 0px;
      }

      .cls-2 {
        stroke-miterlimit: 10;
      }

      .cls-2, .cls-3 {
        fill: none;
        stroke: #ffffff;
        stroke-width: 20px;
      }

      .cls-3 {
        stroke-linecap: round;
        stroke-linejoin: round;
      }
    </style>
  </defs>
  <g id="Layer_1-2" data-name="Layer 1">
    <g>
      <g>
        <path class="cls-1" d="M218.32,429.24c-50.73-30.78-92.31-108.05-92.31-199.37s38.95-163.37,86.38-197.19c11.24-8.01,22.96-13.66,34.74-16.55,1.44-.02,2.89-.02,4.33,0-10.67-.96-20.24-1.28-23.65-1.02C101.68,24.59,6.67,127.94,15.62,245.92c8.7,115.02,113.01,201.52,235.11,196.98,0,0,1.11-.11,2.98-.3-12.01-1.83-23.92-6.42-35.38-13.36ZM67.81,201.68c0-11.62,9.08-21.04,20.29-21.04s20.3,9.42,20.3,21.04-9.09,21.05-20.3,21.05-20.29-9.42-20.29-21.05ZM123,336.4c-11.12-2.63-21.08-11.86-28.04-20.45-11.77-14.53-17.94-31.89-18.56-50.55-.5-14.53,22.06-14.46,22.54,0,.44,13.07,4.7,25.71,13.01,35.92,2.95,3.61,6.67,7.27,10.01,9.65,1.65,1.19,3.41,2.22,5.23,3.16.06.03.12.06.18.09.53.2,1.08.32,1.62.45,14.14,3.34,8.11,25.07-6,21.74Z"/>
        <path class="cls-1" d="M241.52,458.1c-59.36,0-116.02-20.17-160.51-57.32C33.69,361.26,5.14,306.66.63,247.06c-4.64-61.25,16.44-120.7,59.37-167.4C102.67,33.24,161.86,5,226.68.13c4.77-.36,15.27.06,26.13,1.04,8.04.72,14.06,7.66,13.66,15.72-.4,8-7.01,14.27-15.01,14.27-.05,0-.11,0-.16,0-.74,0-1.48-.02-2.22-.01-9.27,2.51-18.67,7.14-27.97,13.77-39.85,28.42-80.07,96.64-80.07,184.95,0,92.69,44.11,161.66,85.08,186.52,9.94,6.03,19.98,9.85,29.85,11.35,7.47,1.14,12.93,7.65,12.75,15.21-.18,7.56-5.94,13.8-13.46,14.59-1.95.21-3.12.32-3.12.32-.29.03-.58.05-.86.06-3.26.12-6.52.18-9.76.18ZM182.73,38.31c-38.77,11.08-73.51,32.22-100.6,61.69-37.23,40.5-55.53,91.92-51.52,144.79,6.44,85.17,68.94,153.52,152.21,175.67-19.17-18.65-35.29-42.88-47.38-70.58-3.26-8.75-21.29-73.37-23.37-94.1-.72-8.56-.93-52.91,3.27-77.03,9.47-55.62,33.82-106.69,67.39-140.43Z"/>
      </g>
      <g>
        <path class="cls-3" d="M296.23,437.18c-9.54,2.39-19.36,4.13-29.41,5.21-2.93.32-5.86.56-8.78.75-1.44-.14-2.9-.32-4.34-.54-12.01-1.83-23.92-6.42-35.38-13.36-50.73-30.78-92.31-108.05-92.31-199.37s38.95-163.37,86.38-197.19c11.24-8.01,22.96-13.66,34.74-16.55,1.44-.02,2.89-.02,4.33,0,17.27.18,34.07,2.46,50.21,6.61,83.55,21.47,148.44,93.19,157.13,184.48,10.22,107.31-60.76,204.53-162.57,229.95Z"/>
        <path class="cls-1" d="M197.04,265.54c-.04.96-.1,1.92-.16,2.87-.24,4.45.34-1.54-.06.96-.3,1.85-.68,3.69-1.15,5.51-.52,2.03-1.19,3.99-1.85,5.98-.37,1.11-.66,1.68-.04.26-.46,1.05-.96,2.08-1.47,3.1-1.74,3.44-3.78,6.75-6.1,9.83.91-1.21.61-.75-.18.13-.75.84-1.47,1.69-2.24,2.51-1.37,1.46-2.8,2.86-4.3,4.2-.66.59-1.34,1.15-2.01,1.72,1.11-.94.97-.67-.09.07-1.61,1.12-3.22,2.22-4.91,3.22s-3.4,1.84-5.13,2.71c-1.33.67-1.24.46.06-.01-.79.29-1.58.59-2.39.86-1.79.6-3.61,1.1-5.45,1.5-.81.18-1.65.27-2.45.47-1.73.44,2.56-.06-.33,0-1.65.03-3.29.16-4.95.11-1.03-.03-2.06-.19-3.09-.21-2.23-.06,3.53.61-.32-.12-7.68-1.46-16.55,2.14-18.45,10.48-1.68,7.39,2.23,16.89,10.48,18.45,45.14,8.58,84.73-30.82,86.6-74.59.34-7.85-7.14-15.35-15-15-8.41.38-14.64,6.59-15,15h0Z"/>
        <path class="cls-2" d="M446.08,164.91c-37.69,0-68.24,27.09-68.24,60.5,0,33.41,30.55,60.5,68.24,60.5"/>
        <path class="cls-1" d="M227.7,205.35c.04-1.37.14-2.74.22-4.12.2-3.63-.42,1.53.08-1.02.47-2.41.95-4.8,1.67-7.15.34-1.09.87-2.18,1.14-3.28.38-1.54-.56,1.3-.59,1.35.23-.41.38-.87.6-1.29,1.07-2.05,2.28-3.94,3.44-5.92,1.32-2.25-1.97,2.14-.23.24.68-.74,1.3-1.51,2-2.23s1.41-1.37,2.12-2.05c.3-.28.67-.51.94-.81,1.08-1.18-3.11,2.08-.76.58,1.48-.95,2.9-1.94,4.46-2.77.27-.14,2.36-1.35,2.51-1.22.28.25-3.32.96-1.75.76.48-.06,1.01-.39,1.48-.53,1.76-.53,3.5-.95,5.29-1.36,2.79-.65-1.78.06-.92.1,1,.05,2.07-.16,3.08-.18.9-.02,1.8,0,2.69.04.67.04,3.98.41,1.06.03s.01.03.65.18c1,.24,1.99.46,2.97.76.86.26,1.69.6,2.54.87,2.34.71-2.84-1.57-.76-.29,1.56.96,3.37,2.21,5.01,2.97.31.14-2.55-2.31-.25-.14.58.55,1.18,1.08,1.75,1.64.66.66,1.23,1.48,1.92,2.1,1.05.93-1.11-1.27-1.06-1.42-.07.23,1.07,1.51,1.21,1.71.56.84,3.57,4.85,3.14,5.71-.06.12-1.27-3.75-.48-1.05.17.59.42,1.17.61,1.76.39,1.22.73,2.46,1.02,3.72.3,1.31.5,2.64.75,3.96-.57-3.07-.15-.92-.05.77.2,3.28.1,6.56-.17,9.84-.64,7.84,7.35,15.34,15,15,8.67-.39,14.32-6.6,15-15,2.06-25.46-9.36-50.38-33.97-59.93-20.04-7.78-44.5-1.09-58.28,15.27-10.13,12.03-14.64,26.81-15.12,42.4-.24,7.85,7.07,15.36,15,15,8.33-.37,14.74-6.59,15-15h0Z"/>
      </g>
    </g>
  </g>
</svg>