<svg width="240" height="240" version="1.1" viewBox="0 0 317.5 317.5" xml:space="preserve"
    xmlns="http://www.w3.org/2000/svg"
    xmlns:xlink="http://www.w3.org/1999/xlink">
    <g id="root">
        <g id="cap">
            <g>
                <path transform="translate(242.84 35.875)" d="m-36.187 160.12-1.3732-4.3408-2.1832-8.0122v-1.4636s-0.74071-2.0214-0.31731-2.7676c0.4234-0.74614 0.74297-1.8185 1.0873-2.6043 0.293-0.66873 0.85062-3.3077 0.85062-3.3077l0.64288-0.96023 0.80234-0.17948 1.8722 2.5722 0.75111 1.4158 2.0154 2.1768 2.0154 1.1185 4.6444 3.134 5.6345 2.6647 5.271 1.5206 3.1006 0.52889 3.1006-2.8e-4 7.7515 0.0955 2.8171-0.43336 1.4373 1.4991-0.57688 0.98932-0.57688 0.98931-3.7401 3.5111-4.3214 2.2417-4.0308 1.2946-4.3408 0.91819-4.3408 0.63411-6.8213 0.67051-9.7981 0.43511zm-104.64 3.8293-4.4958-0.20287-5.581-0.69521-5.271-0.94579-5.271-1.5793-4.7729-2.4735-2.4422-1.7991-1.8934-1.4332-1.8297-2.2547 0.0214-1.1964 2.07 0.41401 3.9678 0.34314 2.9095-0.18603 7.8606-0.73247 5.7105-1.2304 2.1057-0.71709 2.1057-1.2463 2.3254-1.1712 2.3254-1.1712 1.8604-1.2544 1.8604-1.7836 1.7197-1.9115 1.3932-2.2381 0.30968-0.81451 1.368 0.77298 0.24022 1.0633 0.24021 5e-3 0.70545 0.45559 0.4969 1.0852 0.49689 1.0852 1.9001 3.3335 0.44828 0.44827 0.44827 0.44828v0.56275l-2.4465 9.4699-2.4889 7.7515-3.9012 0.00142z" fill="#6e0000"/>
                <path transform="matrix(.87891 0 0 .87891 -299.35 2.3108)" d="m576.72 226.58-0.22688-0.3671 0.99096 0.51412-1.2242-1.0044-0.0934-0.8469-0.0935-0.8469 10.936-0.48962 7.7611-0.76833 4.9389-0.72147 4.9389-1.0447 4.5861-1.473 4.9168-2.5505 4.2554-3.9948 0.65636-1.1256 0.65636-1.1256-4.8405 0.59367-8.8194-0.1086-7.0556-1.2035-5.9972-1.7301-6.4108-3.0318-5.2843-3.5658-4.5862-4.9535-0.8546-1.6109-0.85459-1.6109-0.35399 0.016-0.75967 2.3735-0.75967 2.3735-1.4452 2.5468-1.4452 2.5468-0.52917 0.95618-7.7708 7.7085-5.2819 3.6142-5.9972 3.2171-5.6444 2.2391-4.2333 1.3766-6.7028 1.4553-20.906 0.35532-9.3925-0.83047-4.9198-1.0349-6.4099-2.14-7.0556-3.4094-5.0702-3.4377-4.7062-3.8745-5.7349-6.7028-0.45929-0.35278-2.2044-3.8806-0.56535-1.2347-0.56536-1.2347-0.80264-0.51836-0.54663-0.01-0.35235 0.92674-0.35234 0.92674-4.7459 4.7212-2.1167 1.4273-2.1167 1.4273-5.2917 2.6652-4.7916 1.6318-6.4972 1.3999-8.9436 0.83338-6.6207-0.78083-1.1776-0.23552-1.1776-0.23553 0.66952 1.1531 0.66951 1.1531 4.4473 4.0938 2.7152 1.4071 2.7152 1.4071 5.9972 1.7969 5.9972 1.091 9.5353 1.0464 10.733 0.1378 2.1809 0.23156 0.37466 0.23155-0.71142 1.8712-3.3163-0.1592-1.51-0.1592-10.583-0.37618-7.4083-1.0008-4.5861-0.75047-5.628-1.4758-4.7334-2.0142-3.9149-2.5044-4.2384-3.8965h0.27695l-1.0082-1.0793-1.0082-1.0793-0.89776-2.4827-8.4192-4.2924-2.708-2.708h-0.64635l-1.8817-2.0849-1.8817-2.0849-1.1834-1.9619-1.1834-1.9619-1.7943-4.43-0.0113-3.8806-0.0113-3.8806 1.9797-5.9972 5.83-14.817 4.7439-10.583 6.3929-13.053 6.1952-11.393 5.4255-9.068 0.77419-1.1447 0.7742-1.1446 0.17451 0.17452 0.17452 0.17451v-0.93668l1.1848-1.7365 1.1848-1.7365 0.28732-0.11833 0.28732-0.11832-0.16203-0.26216-0.16202-0.26216 1.0309-1.1287 1.0309-1.1287-0.0774-0.11051-0.0773-0.11052 5.7789-7.6967 3.4949-4.5861 11.893-11.763 7.38-6.1568 5.3094-3.9265 6.3606-3.9977 7.9308-3.9901 7.9442-3.0596 6.5128-1.8635 8.6567-1.7073 4.5596-0.45177 0.43215-0.26708 11.589-0.46938 9.0825 0.7916 8.5564 1.4533 7.9484 2.068 3.6932 1.348 5.8137 2.1721 7.2391 3.6166 7.5827 4.5511 5.8228 4.2928 8.1139 6.7337 9.8937 9.9199 5.3467 6.7028 2.896 3.8248 2.896 3.8248 0.29968 0.76127 0.29967 0.76126 2.5335 3.5255v0.92584l0.5774-0.35685 0.87938 2.4319h0.65989v0.98285l1.103 0.42328-0.43914 0.71054h0.57496l0.50743 1.1465 0.50743 1.1465 1.274 1.3678v0.8665l0.26459 0.11759 0.26458 0.11759 1.6716 3.175 1.4579 2.6458h0.57466l0.016 0.88194 1.3797 1.7639 0.016 1.2347 0.52916 2e-3 0.88195 1.9378 0.88194 1.9378 0.52917 2e-3v1.4111h0.70555v1.4111h0.70556v1.0679l0.88194 1.5506 0.44422 0.48305 0.44421 0.48306-0.19297 0.31224-0.19297 0.31223 1.52 3.0228 1.0638 1.2108 6.3056 14.664 2.7699 7.4083 2.7699 7.4083 0.59311 2.293 0.59311 2.2931-0.12157 4.2333-0.12158 4.2333-2.6799 5.6138-2.435 2.9716v0.67946l-2.6458 2.0062-0.52916 0.61968-0.52917 0.61968-3.2019 1.6777-1.7047 0.98127-0.8107 0.35278-0.47508 0.44097-0.47509 0.44097h-1.2921l-1.389 0.63007-0.61449 0.44291-0.68146 0.61004-0.68147 0.61004-1.6175 3.175-2.8035 3.6557-3.6557 2.7744-3.8918 2.0984-4.5749 1.8102-7.7611 1.4173-2.4694 0.41122-10.936 1.0536-5.2917 0.0392-2.6539 0.94699zm-0.82342-2.7275h-0.35278c0-0.58795 0.35278-0.58795 0.35278 0z" fill="#fd0027"/>
            </g>
        </g>
        <g id="spots">
            <path transform="matrix(.87891 0 0 .87891 -159.39 179.33)" d="m247.61 0.7378-1.6504-0.52414-3.4019-3.8214-2.3669-3.9128-0.89961-2.215-0.8996-2.215 0.0155-4.0569 0.0156-4.0569 2.8976-8.275 5.9357-14.656 2.3074-5.1153 2.3074-5.1153 1.084-0.6957 4.7724 1.2347 4.2333 2.0687 4.3473 3.2361 3.5988 4.3869 2.7433 5.2917 1.5018 4.9023 0.32391 3.1308 0.3239 3.1308-0.67508 6.1223-1.4697 4.9389-2.7761 5.3544-3.7385 4.5234-1.586 1.2951-1.586 1.2951-4.5353 2.4654-4.598 1.397-4.5743 0.40989zm221.28 0.17537-1.561-0.32438-3.5808-1.1592-3.7861-2.1301-4.0918-3.4052-3.2385-4.2087-2.42-4.811-1.4083-4.244-0.42266-3.1697-0.42267-3.1697 0.21331-3.017 0.2133-3.017 1.828-6.3133 2.9522-5.6406 5.9972-6.0784 5.9972-2.9028 4.9389-0.98751 0.59468 0.54067 3.1638 7.3579 3.1638 7.3579 5.5398 14.817 1.1862 4.5861-0.24316 8.4667-2.6474 5.5453-2.2911 2.8869-0.70556 1.4037-3.4329 1.7666-3.9754 0.17445zm-113.09-80.437-1.7639-0.68467-3.309-2.8459-1.9036-4.0239 0.0185-2.3002 0.0185-2.3002 0.72451-1.6789 0.72452-1.6789 3.2084-3.4301 4.3987-2.0247 5.6444 0.0238 2.9689 0.87034 3.0079 2.2942 1.1471 1.504 1.1471 1.504 0.37545 1.3943 0.37544 1.3943 0.0172 2.2474 0.0172 2.2474-1.5676 3.6439-3.4661 3.1163-3.8729 1.449-6.1471-0.03676zm-55.357-15.52-2.0872-0.32885-4.1487-1.0629-5.3225-2.4591-4.346-3.1197-1.9321-2.0421 5.8375-6.32 8.4418-8.178 6.8913-5.7606 5.4453-4.027 6.3606-3.9977 7.7611-3.8934 2.6593-1.1004 3.1506 4.0142 2.1449 4.0242 0.69689 2.7248 0.6969 2.7248v6.8966l-0.54218 2.5774-0.54217 2.5774-1.6725 3.6532-2.8816 4.2433-3.0273 3.0463-2.7996 1.9016-5.2917 2.4969-5.5977 1.4266-7.8078 0.31133zm113.39 7e-3 -2.6458-0.25414-4.5007-1.1595-4.0356-1.6301-5.0127-3.3324-4.187-4.5694-1.251-2.3807-1.251-2.3807-1.1199-3.2986-0.35573-2.837-0.35574-2.837 0.74456-5.9917 1.7005-5.0262 1.9035-2.9254 2.5201-3.3514h0.81693l8.7395 4.298 7.5828 4.5653 5.8228 4.2911 5.9972 4.9737 6.9991 6.39 7.6412 8.3835v0.58026l-4.4097 3.5708-5.2917 2.7497-4.5861 1.4301-3.8806 0.69482-4.9389 0.30119z" fill="#fef6e5"/>
        </g>
        <g id="stem">
            <path transform="translate(242.84 35.875)" d="m-97.569 230.91-2.1704-0.28331-8.0114-1.5564-6.5434-2.1434-5.4862-2.7424-5.3838-3.5536-6.526-6.5524-1.4656-2.2124-1.4656-2.2124-1.204-2.4385-1.2039-2.4385-1.3589-4.0125-0.26873-3.2648-0.26872-3.2648 0.14024-3.5657 0.14023-3.5657 0.15173-1.1627 0.15172-1.1627 0.34284-2.6355 2.036-5.8911 2.036-5.8911 0.97062-3.6826-0.76739-0.2558 0.90493-0.71251 2.8322-8.7478 2.5472-9.5457 0.0265-0.38757 0.0265-0.38758h0.12l3.9188 4.6802 4.3846 3.7189 5.2081 3.4661 2.822 1.3352 2.822-0.25232 5.6337 1.8845 4.3241 0.90959 8.2551 0.7299 18.374-0.31229 5.9043-1.271 4.9083-1.6477 2.7519-1.7156 2.7519-1.1864 5.8474-3.4894 2.293-1.8446 1.9049-1.9309 2.7485-2.9521 2.1448-2.764 0.35868 2.7847 0.14309-0.64513 0.65077 4.223 0.65076 2.6355 1.8608 6.2012 1.1082 3.4106 1.1081 3.4106 0.2611 0.50881 0.26109 0.50881 0.13713 0.67271 0.1279 1.0956 0.1279 1.0956 0.5516 0.34091v1.1084l0.95962 1.9236 0.23702 1.2308 1.2334 3.6639 1.2334 3.664 0.40055 2.4805 0.40056 2.4805 0.011 5.581 0.011 5.5811-0.83554 4.6509-0.60646 1.3953-0.60647 1.3953-1.3528 2.7905-1.9949 3.1006-1.9949 3.1006-6.2421 6.239-6.2197 4.121-4.7693 2.1734-5.1692 1.8245-6.0992 1.3214-8.1284 1.2147-22.944-0.0894z" fill="#fef6e5"/>
        </g>
        <g id="mouth">
            <path d="m172.78 155.39a13.202 11.244 0 0 1-6.5835 9.7522 13.202 11.244 0 0 1-13.208 0.0147 13.202 11.244 0 0 1-6.6133-9.7376" fill="none" stroke="#000" stroke-width="3.5096"/>
        </g>
        <g id="eyes">
            <g>
                <g transform="translate(.51742 .17247)">
                    <ellipse cx="119.51" cy="139.78" rx="11.728" ry="16.299" stroke-width=".45478"/>
                    <ellipse cx="116.92" cy="132.1" rx="5.8641" ry="6.3815" fill="#fff" stroke-width=".36584"/>
                </g>
                <g transform="translate(-.17247 .16254)">
                    <ellipse cx="198.69" cy="139.79" rx="11.728" ry="16.299" stroke-width=".45478"/>
                    <ellipse cx="196.1" cy="132.11" rx="5.8641" ry="6.3815" fill="#fff" stroke-width=".36584"/>
                </g>
            </g>
        </g>
    </g>
</svg>
